{"title":"The One Warrior 2011 DVD R5 Rip DivX AC3-WDR","uid":7008776,"size":1338246762,"categoryP":"video","categoryS":"movies","magnet":"?xt=urn:btih:0687da494c69ca525f2e0947979f2150f6ad7ccc&amp;dn=The+One+Warrior+2011+DVD+R5+Rip+DivX+AC3-WDR&amp;tr=udp%3A%2F%2Ftracker.openbittorrent.com%3A80&amp;tr=udp%3A%2F%2Fopen.demonii.com%3A1337&amp;tr=udp%3A%2F%2Ftracker.coppersurfer.tk%3A6969&amp;tr=udp%3A%2F%2Fexodus.desync.com%3A6969","seeders":0,"leechers":1,"uploader":"HeroMaster","files":-1,"time":1328363510,"description":"The One Warrior (2011) DVD R5 Rip DivX AC3-WDR\n\n\nInformation:\n\n\nThe One Warrior (2011)\nGenres: Fantasy | Adventure   \nYear: 2011\nCountry: USA\nLanguage: English \nSubtitles: No \nRuntime: 87  min \nDirector: Tom Stout\nWriters: David A. Prior\n\n\nCast: \n\n\nEric Alexander ... Ghost 4\nAn Ngo Ang ... Samurai 4\nElizabeth A. Barron ... Villager\nPatrick H. Benezueutton ... Ghost #1\nJonathan A. Bryce ... Guard #5\nChase Byrd ... Villager\nBrittni Rerenee Campbell ... Villager\nChance Caruthers ... Villager\nMellissa Cowley ... Lanterna\nJeff Curran ... Cave Dweller #1\nSodric Dira ... Samurai 2\nRebecca Doswell ... Villager\nJason David Frank ... One Warrior\nKeone Fuqua ... Guard #1 / Death\nGerald L. Grant II ... Guard #9 \n\n\nPlot:\n\n\nThe One Warrior is a fantasy/action piece that is loosely based on video \nadventure games. In our story, the character of The One Warrior finds himself \nin a mythical world where he must destroy the Evil Lord Shoukata, but to do so \nhe must first fight his way through many challenges.\n\n\nIMDB:\n\n &lt;a href=&quot;\nhttp://www.imdb.com/title/tt1623772/&quot; rel=&quot;nofollow&quot; target=&quot;_NEW&quot;&gt;\nhttp://www.imdb.com/title/tt1623772/&lt;/a&gt; \n\n\nDetails:\n\n\nVideo\nID                                       : 0\nFormat                                   : MPEG-4 Visual\nFormat profile                           : Simple@L1\nFormat settings, BVOP                    : No\nFormat settings, QPel                    : No\nFormat settings, GMC                     : No warppoints\nFormat settings, Matrix                  : Default (H.263)\nCodec ID                                 : DX50\nCodec ID/Hint                            : DivX 5\nDuration                                 : 1h 26mn\nBit rate                                 : 1 797 Kbps\nWidth                                    : 720 pixels\nHeight                                   : 404 pixels\nDisplay aspect ratio                     : 16:9\nFrame rate                               : 25.000 fps\nColor space                              : YUV\nChroma subsampling                       : 4:2:0\nBit depth                                : 8 bits\nScan type                                : Progressive\nCompression mode                         : Lossy\nBits/(Pixel*Frame)                       : 0.247\nStream size                              : 1.09 GiB (87%)\nWriting library                          : DigiArty AV Encoder Core\n\nAudio\nID                                       : 1\nFormat                                   : AC-3\nFormat/Info                              : Audio Coding 3\nMode extension                           : CM (complete main)\nCodec ID                                 : 2000\nDuration                                 : 1h 26mn\nBit rate mode                            : Constant\nBit rate                                 : 256 Kbps\nChannel(s)                               : 6 channels\nChannel positions                        : Front: L C R, Side: L R, LFE\nSampling rate                            : 48.0 KHz\nBit depth                                : 16 bits\nCompression mode                         : Lossy\nStream size                              : 158 MiB (12%)\nAlignment                                : Split accross interleaves\nInterleave, duration                     : 500 ms (12.50 video frames)\nInterleave, preload duration             : 500 ms\n\n\nPoster:\n\n\n &lt;a href=&quot;\nhttp://i.imgur.com/2xxLt.jpg&quot; rel=&quot;nofollow&quot; target=&quot;_NEW&quot;&gt;\nhttp://i.imgur.com/2xxLt.jpg&lt;/a&gt;\n\n\nScreens:\n\n &lt;a href=&quot;\nhttp://i.imgur.com/3Bil4.png&quot; rel=&quot;nofollow&quot; target=&quot;_NEW&quot;&gt;\nhttp://i.imgur.com/3Bil4.png&lt;/a&gt;\n\n &lt;a href=&quot;\nhttp://i.imgur.com/AXn80.png&quot; rel=&quot;nofollow&quot; target=&quot;_NEW&quot;&gt;\nhttp://i.imgur.com/AXn80.png&lt;/a&gt;\n\n &lt;a href=&quot;\nhttp://i.imgur.com/nNFMR.png&quot; rel=&quot;nofollow&quot; target=&quot;_NEW&quot;&gt;\nhttp://i.imgur.com/nNFMR.png&lt;/a&gt;\n\n\nENJOY!","torrent":{"xt":"urn:btih:0687da494c69ca525f2e0947979f2150f6ad7ccc","amp;dn":"The+One+Warrior+2011+DVD+R5+Rip+DivX+AC3-WDR","amp;tr":["udp%3A%2F%2Ftracker.openbittorrent.com%3A80","udp%3A%2F%2Fopen.demonii.com%3A1337","udp%3A%2F%2Ftracker.coppersurfer.tk%3A6969","udp%3A%2F%2Fexodus.desync.com%3A6969"],"infoHash":"0687da494c69ca525f2e0947979f2150f6ad7ccc","infoHashBuffer":{"type":"Buffer","data":[6,135,218,73,76,105,202,82,95,46,9,71,151,159,33,80,246,173,124,204]},"announce":[],"urlList":[]}}